<svg height="1080pt" preserveAspectRatio="xMidYMid meet" viewBox="0 0 1000 1080" width="1000pt" xmlns="http://www.w3.org/2000/svg"><g transform="matrix(.1 0 0 -.1 0 1080)"><path d="m2029 9720c-108-4-130-8-149-25-52-47-51-40-51-573 1-548-2-516 65-566 25-19 42-21 169-21 134 0 144 1 176 24 61 44 61 41 61 572 0 532 0 529-64 568-43 26-63 28-207 21z"/><path d="m4460 9719c-43-9-88-55-101-101-6-24-9-212-7-512 3-461 4-475 24-502 46-62 65-69 202-72 116-3 131-1 171 20 83 43 81 26 81 576 0 535 0 532-64 571-25 15-54 20-153 23-67 1-136 0-153-3z"/><path d="m6990 9719c-17-4-43-17-57-30-53-49-53-52-53-561 0-456 1-473 21-514 32-67 78-84 220-84 141 0 187 17 219 79 20 40 20 51 18 530-3 477-4 490-24 517-43 59-60 64-191 67-67 1-136-1-153-4z"/><path d="m1085 9095c-206-56-352-190-431-395l-29-75-3-2548c-2-2218 0-2556 13-2618 44-214 209-390 435-466 53-17 136-18 1831-21l1776-2 28-73c79-205 239-476 390-662 103-127 310-325 445-426 456-342 963-510 1538-510 816 0 1553 374 2049 1039 242 325 403 722 470 1159 24 158 24 547-1 708-35 230-101 457-195 673-166 382-462 752-808 1010l-103 77v1315c0 1454 4 1357-66 1500-51 103-162 213-264 263-125 61-164 67-437 67h-243v-287c0-264-2-292-20-331-15-33-29-47-62-62-39-18-67-20-273-20-220 0-233 1-275 23-78 40-80 48-80 384v293h-910-910v-293c0-336-2-344-80-384-42-22-55-23-275-23-206 0-234 2-273 20-33 15-47 29-62 62-18 39-20 67-20 331v287h-910-910v-292c0-337-2-346-80-385-42-22-56-23-274-23-211 0-233 2-272 21-31 15-48 32-63 63-20 40-21 60-21 329v287l-287-1c-209 0-302-4-338-14zm6462-1585c64-14 158-74 201-128 18-22 45-67 60-99l27-58 3-472c2-260 0-473-3-473s-56 13-118 30c-228 60-345 74-632 75-168 0-292-5-350-13-217-33-438-91-610-161l-99-41h-306c-287 0-307-1-338-20-63-39-72-67-72-237 0-83 5-164 10-179 10-25 4-33-92-133-57-58-136-150-177-204l-74-97-36 23c-35 22-41 22-381 22h-345l-39-24c-62-39-76-81-76-240 0-115 3-141 20-175 40-80 42-81 334-84 238-3 258-4 252-20-3-9-25-75-50-147l-45-130-198-5c-229-6-251-13-291-90-21-42-23-55-20-192 3-130 5-150 24-174 47-64 62-69 235-74l159-5 5-192 5-193h-1448c-1598 0-1509-3-1621 63-64 38-133 121-164 197l-22 55-3 1600c-2 1098 1 1622 8 1669 14 89 48 158 112 222 62 64 140 103 221 112 111 12 5876 4 5934-8zm-202-1595c354-47 701-189 987-406 104-79 281-250 361-349 301-371 467-840 467-1318 0-786-451-1515-1155-1865-302-150-594-219-935-219-548-1-1048 200-1443 581-341 329-545 720-623 1196-25 147-25 453 0 611 142 921 859 1635 1776 1768 131 19 422 20 565 1z"/><path d="m1769 6977c-19-12-44-42-57-67-21-42-23-55-20-185 3-157 15-191 80-230 31-19 54-20 363-23 372-3 392 0 443 66 27 35 27 36 27 198 0 181-4 193-75 242-33 22-37 22-380 22-344 0-347 0-381-23z"/><path d="m2982 6983c-67-33-77-60-80-227-2-82-1-159 2-172 11-41 63-90 108-103 30-9 139-11 370-9 313 3 328 4 355 24 15 11 38 36 51 54 20 31 22 44 22 190s-2 159-22 190c-48 69-54 70-433 70-293 0-345-3-373-17z"/><path d="m4180 6978c-70-48-75-63-78-231-2-142-1-155 20-192 15-26 39-48 68-62 43-22 52-23 371-23 321 0 327 0 369 23 30 16 51 37 68 68 22 42 23 52 20 191-3 162-9 179-78 226-33 22-37 22-380 22s-347 0-380-22z"/><path d="m5395 6986c-71-31-94-90-94-241 0-60 4-127 8-149 12-48 64-103 111-116 19-6 174-10 350-10 308 0 317 1 360 23 80 41 85 54 85 245 0 157-1 169-22 198-45 63-55 64-430 64-258-1-345-4-368-14z"/><path d="m6592 6983c-18-9-43-30-55-47-21-29-22-42-22-198 0-191 5-204 85-245 43-22 52-23 360-23 176 0 331 4 350 10 45 12 95 64 108 112 6 20 9 95 9 165-2 144-14 178-77 220-33 23-36 23-379 23-298 0-351-3-379-17z"/><path d="m1775 6151c-70-43-85-86-85-240 0-144 10-179 59-224 52-47 77-49 446-45 295 3 301 3 338 27 65 40 77 78 77 243 0 130-2 147-23 182-43 75-47 76-437 76-318 0-347-2-375-19z"/><path d="m2972 6150c-64-39-72-66-72-241 0-145 2-158 23-189 12-19 38-43 57-54 33-20 50-21 375-21s342 1 375 21c19 11 45 35 57 54 21 31 23 44 23 189 0 175-8 202-72 241-31 19-51 20-383 20s-352-1-383-20z"/><path d="m4195 6161c-31-14-66-51-81-87-10-23-14-75-14-166 0-154 15-201 78-240 37-23 40-23 382-23s345 0 382 23c63 39 78 86 78 240 0 148-8 179-59 227l-32 30-357 2c-196 1-366-2-377-6z"/><path d="m1812 5340c-46-11-100-66-113-114-6-23-9-97-7-171 3-126 4-133 31-168 51-67 48-67 427-67 388 0 392 1 435 75 23 39 25 51 25 186 0 130-2 148-23 183-12 22-38 49-57 60-33 20-52 21-360 23-179 1-340-2-358-7z"/><path d="m3007 5336c-93-34-107-68-107-253 0-167 10-201 69-240 34-23 37-23 385-23 333 0 353 1 384 20 64 39 72 66 72 241 0 145-2 158-23 189-12 19-38 43-57 54-33 20-52 21-360 23-257 2-333 0-363-11z"/><path d="m1783 4499c-24-12-52-37-65-57-21-33-23-52-26-177-3-130-1-143 20-185 13-25 38-55 57-67 34-23 37-23 381-23 343 0 347 0 380 23 71 48 75 60 75 240 0 155-1 163-24 196-48 67-67 71-431 71-310 0-327-1-367-21z"/><path d="m3015 4513c-32-8-84-51-101-84-12-25-15-60-12-187 3-144 5-160 25-188 45-62 55-64 430-64 377 0 383 1 431 70 20 31 22 44 22 190s-2 159-22 190c-13 18-36 43-51 54-27 20-40 21-365 23-185 0-346-1-357-4z"/><path d="m8368 4997c-464-363-867-684-885-706-41-47-20-141 38-171 35-19 88-14 123 11 81 59 942 744 953 758 53 68-8 181-98 181-32 0-52-11-131-73z"/><path d="m5839 4957c-75-51-102-144-60-213 19-32 625-589 663-611 27-14 97-17 130-4 37 14 84 68 97 111 12 42 3 99-22 131-23 30-622 572-652 591-43 26-113 24-156-5z"/><path d="m7000 4253c-49-7-146-46-186-74-57-39-119-111-148-173-114-240 9-522 264-606 123-41 291-14 392 63 213 163 238 473 53 661-98 99-246 150-375 129z"/></g></svg>